<?xml version="1.0" encoding="utf-8"?>
<!DOCTYPE svg PUBLIC "-//W3C//DTD SVG 20010904//EN" "http://www.w3.org/TR/2001/REC-SVG-20010904/DTD/svg10.dtd">
<svg fill="currentColor" height="1em" preserveAspectRatio="xMidYMid meet" version="1.0" viewBox="0 0 512.000000 512.000000" width="1em" xmlns="http://www.w3.org/2000/svg">
<g fill="#000000" stroke="none" transform="translate(0.000000,512.000000) scale(0.100000,-0.100000)">
<path d="M1261 4231 c-630 -488 -1146 -892 -1148 -897 -2 -7 1185 -446 1213 -448 4 -1 249 211 545 469 l538 470 1 648 c0 356 -1 647 -2 646 -2 0 -518 -400 -1147 -888z" fill="currentColor"/>
<path d="M2710 4484 l0 -639 701 -420 c385 -231 706 -419 712 -417 49 12 887 318 887 324 0 4 -498 392 -1107 864 -610 472 -1127 873 -1150 892 l-43 34 0 -638z" fill="currentColor"/>
<path d="M2710 3087 l0 -403 44 -21 c24 -12 68 -42 99 -67 l56 -45 422 158 c408 153 421 159 398 174 -53 34 -1011 607 -1015 607 -2 0 -4 -181 -4 -403z" fill="currentColor"/>
<path d="M2028 3097 c-237 -208 -373 -334 -365 -338 6 -4 133 -52 280 -108 l268 -100 56 45 c31 25 75 55 99 67 l44 21 0 373 c0 205 -1 373 -2 372 -2 0 -173 -150 -380 -332z" fill="currentColor"/>
<path d="M10 3014 c5 -16 201 -643 435 -1394 234 -751 431 -1382 438 -1404 l13 -38 224 318 c123 176 226 330 228 344 5 35 -128 1753 -136 1762 -6 6 -1154 425 -1194 436 -15 4 -16 0 -8 -24z" fill="currentColor"/>
<path d="M4630 2870 l-464 -168 -277 -829 -276 -829 306 -433 305 -433 13 39 c7 21 204 652 438 1403 234 751 430 1377 435 1393 6 19 6 27 -3 26 -7 0 -221 -76 -477 -169z" fill="currentColor"/>
<path d="M3435 2429 c-187 -70 -358 -135 -380 -144 -40 -15 -41 -16 -51 -84 -6 -38 -25 -99 -43 -136 l-31 -67 226 -316 c125 -175 230 -321 234 -325 4 -5 97 258 205 585 109 326 200 599 203 606 2 6 -2 12 -9 11 -8 -1 -167 -59 -354 -130z" fill="currentColor"/>
<path d="M1533 2418 c3 -35 25 -318 48 -630 24 -313 46 -568 49 -567 3 0 130 175 282 389 l278 388 -31 67 c-18 37 -37 98 -43 136 l-10 69 -51 19 c-418 157 -510 191 -518 191 -6 0 -8 -24 -4 -62z" fill="currentColor"/>
<path d="M2488 2389 c-43 -22 -78 -81 -78 -129 0 -50 35 -107 80 -130 21 -11 53 -20 70 -20 76 0 150 74 150 150 0 50 -35 107 -80 130 -49 25 -94 25 -142 -1z" fill="currentColor"/>
<path d="M2127 1398 c-169 -237 -306 -433 -304 -434 8 -9 1327 201 1324 210 -2 5 -106 155 -233 332 -228 322 -229 323 -259 316 -39 -9 -151 -9 -190 0 -30 7 -31 6 -338 -424z" fill="currentColor"/>
<path d="M2460 756 c-470 -73 -863 -135 -873 -137 -10 -2 -114 -141 -232 -309 l-214 -305 709 -3 c391 -1 1029 -1 1420 0 l709 3 -310 440 c-237 335 -316 440 -332 442 -12 1 -407 -58 -877 -131z" fill="currentColor"/>
</g>
</svg>